<svg width="24" height="24" viewBox="0 0 24 24" fill="none" xmlns="http://www.w3.org/2000/svg">
<path fill-rule="evenodd" clip-rule="evenodd" d="M4 8.7C4 4.443 7.443 1 11.7 1C15.957 1 19.4 4.443 19.4 8.7C19.4 14.475 11.7 23 11.7 23C11.7 23 4 14.475 4 8.7ZM11.7 3.2C8.664 3.2 6.2 5.664 6.2 8.7C6.2 11.835 9.412 16.631 11.7 19.568C14.032 16.609 17.2 11.868 17.2 8.7C17.2 5.664 14.736 3.2 11.7 3.2ZM14.45 8.7C14.45 10.2188 13.2188 11.45 11.7 11.45C10.1812 11.45 8.95 10.2188 8.95 8.7C8.95 7.18122 10.1812 5.95 11.7 5.95C13.2188 5.95 14.45 7.18122 14.45 8.7Z" fill="#5C6670"/>
</svg>
